<svg xmlns="http://www.w3.org/2000/svg" viewBox="0 0 198 198"><title>Artboard 3</title><path d="M147,116.87l-1.2.5a10.8,10.8,0,0,0-5.3-4.6,10.66,10.66,0,0,0-8.4.1l-11.6,4.9a3,3,0,0,0-1.6,3.9,3.08,3.08,0,0,0,2.8,1.8,5,5,0,0,0,1.2-.2l11.6-4.9a5,5,0,0,1,3.8,0,4.5,4.5,0,0,1,1.9,1.4l-23.5,10a10.87,10.87,0,0,0-6.5-10.8l-25.9-11.5a33,33,0,0,0-33.4,3.9l-3.9,3-.3.3-1,1a2.88,2.88,0,0,0-.9,2.1v32h-6.1a3,3,0,0,0,0,6h9a3,3,0,0,0,3-3V119l3.8-2.9a27.07,27.07,0,0,1,27.4-3.2l25.8,11.6a4.52,4.52,0,0,1,2.6,2.8,5,5,0,0,1-.1,3.8,4.92,4.92,0,0,1-2.7,2.6,5,5,0,0,1-3.8-.1l-20-8.9a3,3,0,1,0-2.5,5.5l20,8.9a10.67,10.67,0,0,0,8.4.2,3.7,3.7,0,0,0,1.1-.5c.2,0,.3-.1.4-.1l38.2-16.2a5,5,0,0,1,3.8,0,5.09,5.09,0,0,1,2.7,2.7,5,5,0,0,1,0,3.8,5.09,5.09,0,0,1-2.7,2.7l-56.4,23.8a16.94,16.94,0,0,1-14.1-.4l-23.8-11.6a3,3,0,0,0-2.6,5.4L80,160.47a22.29,22.29,0,0,0,10.1,2.3,23.69,23.69,0,0,0,9-1.8l56.4-23.8a10.86,10.86,0,0,0,5.9-6,10.66,10.66,0,0,0-.1-8.4,11,11,0,0,0-14.3-5.9Z"/><path d="M99,98.56a3,3,0,0,1-2.12-.88L72,72.8a3,3,0,0,1,0-4.24L96.88,43.68a3,3,0,0,1,4.24,0L126,68.56a3,3,0,0,1,0,4.24L101.12,97.68A3,3,0,0,1,99,98.56ZM78.36,70.68,99,91.32l20.64-20.64L99,50Z"/></svg>